<svg viewBox="0 0 512 512" xmlns="http://www.w3.org/2000/svg">
<g>
<path fill="#fff" d="M149.065,107.362v248.272c-15.833-14.124-36.696-22.722-59.533-22.722C40.164,332.911,0,373.075,0,422.444
    c0,49.369,40.164,89.533,89.532,89.533c49.307,0,89.43-40.064,89.531-89.347h0.002V245.187L482,155.593v127.813
    c-15.833-14.124-36.696-22.722-59.532-22.722c-49.369,0-89.533,40.164-89.533,89.532c0,49.369,40.164,89.533,89.533,89.533
    c49.368,0,89.532-40.165,89.532-89.533V0.023L149.065,107.362z M89.532,481.977C56.706,481.977,30,455.271,30,422.444
    c0-32.827,26.706-59.533,59.532-59.533c32.827,0,59.533,26.706,59.533,59.533C149.065,455.271,122.359,481.977,89.532,481.977z
    M422.468,409.749c-32.827,0-59.533-26.707-59.533-59.533s26.706-59.532,59.533-59.532c32.826,0,59.532,26.706,59.532,59.532
    C482,383.043,455.294,409.749,422.468,409.749z M482,124.308l-302.935,89.594v-84.128L482,40.18V124.308z"/>
</g>
</svg>
